<svg width="24" height="24" viewBox="0 0 24 24" fill="none" xmlns="http://www.w3.org/2000/svg">
<path d="M2 9L2 15C2 20 4 22 9 22L15 22C20 22 22 20 22 15L22 9C22 4 20 2 15 2L9 2C4 2 2 4 2 9Z" stroke="white" stroke-width="1.5" stroke-linecap="round" stroke-linejoin="round"/>
<path d="M5.50003 15.57L9.40003 15.57" stroke="white" stroke-width="1.5" stroke-miterlimit="10" stroke-linecap="round" stroke-linejoin="round"/>
<path d="M16.55 15.57L18.5 15.57" stroke="white" stroke-width="1.5" stroke-miterlimit="10" stroke-linecap="round" stroke-linejoin="round"/>
<path d="M11.35 15.57C11.35 17.0059 12.5141 18.17 13.95 18.17C15.386 18.17 16.55 17.0059 16.55 15.57C16.55 14.1341 15.386 12.97 13.95 12.97C12.5141 12.97 11.3501 14.1341 11.35 15.57Z" stroke="white" stroke-width="1.5" stroke-miterlimit="10" stroke-linecap="round" stroke-linejoin="round"/>
<path d="M5.49995 8.42999L7.44995 8.42999" stroke="white" stroke-width="1.5" stroke-miterlimit="10" stroke-linecap="round" stroke-linejoin="round"/>
<path d="M14.6 8.42999L18.5 8.42999" stroke="white" stroke-width="1.5" stroke-miterlimit="10" stroke-linecap="round" stroke-linejoin="round"/>
<path d="M7.45003 8.42999C7.45003 9.86593 8.61409 11.03 10.05 11.03C11.486 11.03 12.65 9.86593 12.65 8.42999C12.65 6.99405 11.486 5.82999 10.05 5.82999C8.61409 5.82999 7.45003 6.99405 7.45003 8.42999Z" stroke="white" stroke-width="1.5" stroke-miterlimit="10" stroke-linecap="round" stroke-linejoin="round"/>
</svg>
